<svg xmlns="http://www.w3.org/2000/svg" viewBox="0 0 1369 747"><defs><style>.cls-1{isolation:isolate;}.cls-19,.cls-2{fill:#182751;}.cls-16,.cls-3{fill:#e6edff;}.cls-10,.cls-11,.cls-12,.cls-17,.cls-4{fill:none;}.cls-4{stroke:#e6edff;}.cls-10,.cls-11,.cls-12,.cls-13,.cls-17,.cls-4{stroke-miterlimit:10;}.cls-5{fill:#fdc22c;}.cls-6{fill:#fff;}.cls-13,.cls-7{fill:#2bbfc1;}.cls-8{fill:#ee3956;}.cls-9{fill:#fafcfe;}.cls-10{stroke:#ee3956;stroke-width:2.3px;stroke-dasharray:11.51;}.cls-11,.cls-12{stroke:#182751;stroke-width:0.58px;}.cls-11,.cls-12,.cls-17{stroke-linecap:round;}.cls-11{stroke-dasharray:4.54;}.cls-13{stroke:#e5edff;stroke-width:0.86px;}.cls-14{fill:#3766a1;}.cls-15{fill:#e5edff;}.cls-16{opacity:0.3;}.cls-17{stroke:#fff;}.cls-18{fill:#eb6a4f;}.cls-19{opacity:0.1;}.cls-20{mix-blend-mode:multiply;opacity:0.21;}</style></defs><g class="cls-1"><g id="Layer_1" data-name="Layer 1"><rect class="cls-2" x="-23.41" y="-17.37" width="1415.81" height="769.74"/><rect class="cls-3" x="283.62" y="96.5" width="753.65" height="470.86" rx="35.52"/><rect class="cls-4" x="257.06" y="73.04" width="806.77" height="517.77" rx="48.83"/><rect class="cls-5" x="796.31" y="147.69" width="118.96" height="118.96" rx="19.16"/><path class="cls-6" d="M845.34,229.09l33.78-33.79a14.13,14.13,0,0,0,16.66-17.6l-6.41,6.41a3.77,3.77,0,0,1-3.64,1l-3.54-1a3.77,3.77,0,0,1-2.67-2.67l-.95-3.54a3.77,3.77,0,0,1,1-3.65l6.4-6.4a14.14,14.14,0,0,0-17.6,16.66l-33.78,33.78a14.14,14.14,0,1,0,10.77,10.77Zm-9.63,11.34a3.79,3.79,0,0,1-3.65,1l-5.63-1.51a3.76,3.76,0,0,1-2.67-2.66l-1.51-5.63a3.81,3.81,0,0,1,1-3.65l4.12-4.12a3.8,3.8,0,0,1,3.65-1l5.63,1.51A3.79,3.79,0,0,1,839.3,227l1.5,5.63a3.79,3.79,0,0,1-1,3.65Z"/><path class="cls-6" d="M844.32,179.81V175.5a3.39,3.39,0,0,0-6.78,0v4.31h-4.31a3.39,3.39,0,1,0,0,6.78h4.31v4.31a3.39,3.39,0,0,0,6.78,0v-4.31h4.31a3.39,3.39,0,0,0,0-6.78Z"/><path class="cls-6" d="M828.88,197.33v-2.57a2,2,0,1,0-4,0v2.57h-2.57a2,2,0,1,0,0,4h2.57v2.56a2,2,0,1,0,4,0v-2.56h2.57a2,2,0,0,0,0-4Z"/><rect class="cls-5" x="549.08" y="397.24" width="43.51" height="34.81" rx="6.42"/><rect class="cls-7" x="549.08" y="481.36" width="43.51" height="34.81" rx="6.42"/><path class="cls-2" d="M767.28,481.36H602.58a4.19,4.19,0,0,0-4.19,4.19V512a4.2,4.2,0,0,0,4.19,4.19h164.7a4.2,4.2,0,0,0,4.19-4.19V485.55A4.19,4.19,0,0,0,767.28,481.36Zm-158.73,8.85h91.61a.89.89,0,0,1,0,1.75H608.55a.89.89,0,0,1,0-1.75ZM721.27,506.5H608.71a.88.88,0,1,1,0-1.75H721.27a.88.88,0,1,1,0,1.75Z"/><rect class="cls-8" x="549.08" y="439.3" width="43.51" height="34.81" rx="6.42"/><path class="cls-2" d="M767.28,439.3H602.58a4.19,4.19,0,0,0-4.19,4.19v26.43a4.2,4.2,0,0,0,4.19,4.19h164.7a4.2,4.2,0,0,0,4.19-4.19V443.49A4.19,4.19,0,0,0,767.28,439.3Zm-75.75,25.06h-83c-.36,0-.65-.39-.65-.87s.29-.87.65-.87h83c.36,0,.65.39.65.87S691.89,464.36,691.53,464.36Zm29.74-13.57H608.71a.88.88,0,1,1,0-1.75H721.27a.88.88,0,1,1,0,1.75Z"/><path class="cls-2" d="M767.28,397.24H602.58a4.19,4.19,0,0,0-4.19,4.18v26.44a4.19,4.19,0,0,0,4.19,4.18h164.7a4.19,4.19,0,0,0,4.19-4.18V401.42A4.19,4.19,0,0,0,767.28,397.24ZM691.53,421.4h-83c-.36,0-.65-.39-.65-.87s.29-.88.65-.88h83c.36,0,.65.4.65.88S691.89,421.4,691.53,421.4Zm29.74-13.57H608.71a.88.88,0,1,1,0-1.75H721.27a.88.88,0,1,1,0,1.75Z"/><path class="cls-9" d="M567.79,464.09a1,1,0,0,1-.6-.2l-7.07-5.23a1,1,0,1,1,1.21-1.63l6.35,4.7,11.48-11.91a1,1,0,0,1,1.46,1.4l-12.1,12.56A1,1,0,0,1,567.79,464.09Z"/><rect class="cls-2" x="549.13" y="148.48" width="222.39" height="222.39" rx="19.94"/><polyline class="cls-10" points="605.97 214.97 577.69 214.97 577.69 259.27 605.97 259.27"/><circle class="cls-3" cx="577.69" cy="237.12" r="7.97"/><polyline class="cls-10" points="714.67 303.36 742.96 303.36 742.96 259.05 714.67 259.05"/><circle class="cls-3" cx="742.96" cy="281.21" r="7.97"/><rect class="cls-5" x="605.97" y="203.74" width="111.34" height="22.46" rx="11.23"/><rect class="cls-7" x="605.97" y="248.05" width="111.34" height="22.46" rx="11.23"/><rect class="cls-8" x="605.97" y="293.15" width="111.34" height="22.46" rx="11.23"/><rect class="cls-8" x="405.39" y="397.24" width="118.93" height="118.93" rx="11.51"/><path class="cls-6" d="M500.77,449.64l-5.95-1a30.87,30.87,0,0,0-3.08-7.42l3.47-4.95a4.57,4.57,0,0,0-.51-5.86l-3.56-3.56a4.58,4.58,0,0,0-5.87-.42l-4.95,3.47a30.6,30.6,0,0,0-7.41-3.07l-1-6.09a4.58,4.58,0,0,0-4.42-3.8h-5.14a4.57,4.57,0,0,0-4.51,3.8l-1.05,5.94a30.21,30.21,0,0,0-7.41,3.07l-4.94-3.32a4.57,4.57,0,0,0-5.86.51L435,430.47a4.57,4.57,0,0,0-.52,5.86l3.48,4.95a30.7,30.7,0,0,0-3.08,7.42l-5.94,1a4.58,4.58,0,0,0-3.79,4.51v5.05a4.56,4.56,0,0,0,3.79,4.51l5.94,1.05a30.87,30.87,0,0,0,3.08,7.42l-3.48,5a4.57,4.57,0,0,0,.52,5.86l3.56,3.56a4.57,4.57,0,0,0,5.86.52l4.95-3.48a30.87,30.87,0,0,0,7.42,3.08l1.05,5.94a4.56,4.56,0,0,0,4.51,3.79h5.12a4.58,4.58,0,0,0,4.52-3.79l1-5.94a30.7,30.7,0,0,0,7.42-3.08l4.83,3.4a4.58,4.58,0,0,0,5.87-.51L494.7,483a4.57,4.57,0,0,0,.51-5.86l-3.47-5a30.7,30.7,0,0,0,3.08-7.42l5.95-1a4.58,4.58,0,0,0,3.8-4.51v-5.05A4.59,4.59,0,0,0,500.77,449.64Zm-35.93,22.84a15.82,15.82,0,1,1,15.82-15.82v.09A15.81,15.81,0,0,1,464.84,472.48Z"/><rect class="cls-5" x="405.39" y="147.72" width="118.93" height="118.93" rx="11.51"/><path class="cls-6" d="M493.42,236.9h-3.13c0-.24,0-.48,0-.71s-.05-.46-.07-.69-.06-.62-.1-.92-.07-.48-.1-.72-.08-.58-.13-.86-.09-.48-.13-.72-.11-.56-.16-.84-.11-.48-.17-.71-.12-.54-.19-.81-.13-.47-.19-.71-.14-.52-.22-.78-.15-.47-.22-.7-.16-.51-.25-.76l-.06-.19c-.05-.14-.11-.28-.17-.43s-.21-.58-.33-.87-.16-.41-.25-.61-.23-.56-.36-.83c0-.1-.08-.21-.13-.31h0c-4.38-9.49-12.6-15.89-22-15.89q.58,0,1.17,0l.29,0c.37,0,.75-.06,1.12-.11h0l1.13-.18.28-.05c.35-.07.71-.15,1.06-.24h.05c.37-.09.73-.2,1.09-.31l.27-.09c.34-.11.68-.23,1-.36l.07,0,1.05-.44.25-.12c.32-.15.64-.3.95-.47l.09,0,1-.56.25-.15.89-.56.09-.07c.32-.21.63-.44.94-.67l.23-.17.82-.66.11-.09c.3-.25.59-.51.88-.78l.21-.19c.25-.25.51-.49.76-.75l.11-.1.81-.88.19-.22c.23-.27.47-.54.69-.82l.11-.13c.25-.32.5-.64.74-1l.17-.24c.22-.29.42-.59.63-.89,0,0,.07-.1.1-.16.23-.34.45-.69.67-1l.14-.25c.19-.32.38-.64.55-1a1.62,1.62,0,0,0,.1-.18c.2-.37.4-.75.58-1.13.05-.09.09-.18.13-.26L487,192h0a37.51,37.51,0,0,0,3.38-14.64h3.06a2.58,2.58,0,1,0,0-5.15h-56.5a2.58,2.58,0,1,0,0,5.15h2.69A37.16,37.16,0,0,0,443,192h0c.07.14.14.28.2.42s.09.18.13.27c.19.38.38.76.58,1.13l.11.18q.25.48.54,1l.15.25c.22.36.44.71.67,1,0,.06.07.11.1.16.21.3.41.6.62.89l.17.24c.25.33.49.65.75,1l.11.13c.22.28.45.55.69.82.06.07.12.15.19.22q.39.45.81.87l.11.12c.25.25.5.5.76.74l.21.19c.29.27.58.53.88.78l.1.09.83.66.22.17c.31.23.63.46.94.67l.1.07.89.56.24.15c.33.19.66.38,1,.56l.08,0c.32.17.63.32.95.47l.26.12c.34.15.69.3,1.05.44l.07,0c.33.13.67.25,1,.36l.27.09c.36.11.73.22,1.1.31h0c.36.09.71.17,1.07.24l.28.05c.38.07.75.13,1.13.18h0c.37,0,.74.08,1.12.11l.29,0c.38,0,.77,0,1.16,0-9.4,0-17.6,6.37-22,15.82h0l-.12.27q-.27.58-.51,1.2c-.06.14-.13.29-.19.44-.21.55-.41,1.1-.6,1.66l-.09.28c-.16.48-.31,1-.44,1.44l-.15.55c-.12.43-.22.86-.32,1.3l-.12.52c-.13.6-.25,1.2-.35,1.81,0,.07,0,.13,0,.2-.09.55-.17,1.1-.23,1.66l-.06.59c0,.43-.08.87-.11,1.32h-2.75a2.58,2.58,0,0,0-2.58,2.57h0a2.59,2.59,0,0,0,2.58,2.58h56.5a2.59,2.59,0,0,0,2.58-2.58h0A2.58,2.58,0,0,0,493.42,236.9Zm-50.28-57.28h43.68A33.25,33.25,0,0,1,483.19,192H446.78A33.25,33.25,0,0,1,443.14,179.62ZM465,211.25c7.59,0,14.29,5,18.25,12.48l-36.46-.07C450.73,216.18,457.42,211.25,465,211.25Z"/><rect class="cls-7" x="795.89" y="396.25" width="119.61" height="119.61" rx="11.51"/><rect class="cls-6" x="807.93" y="425.97" width="9.29" height="64.97"/><rect class="cls-6" x="822.3" y="450.15" width="9.29" height="48.77"/><rect class="cls-6" x="836.67" y="466.13" width="9.29" height="40.58"/><rect class="cls-6" x="851.05" y="457.66" width="9.29" height="37.71"/><rect class="cls-6" x="865.42" y="445.64" width="9.29" height="43.31"/><rect class="cls-6" x="879.79" y="434.75" width="9.29" height="49.49"/><rect class="cls-6" x="894.17" y="413.53" width="9.29" height="76.59"/><line class="cls-11" x1="803.02" y1="480.73" x2="907.74" y2="480.73"/><polyline class="cls-12" points="808.59 422.08 812.57 422.08 826.95 446.79 841.32 463.13 855.69 454.42 870.07 442.59 884.44 431.94 898.81 410.17 906.68 407.19"/><circle class="cls-13" cx="812.57" cy="422.08" r="1.67"/><circle class="cls-13" cx="826.95" cy="446.79" r="1.67"/><circle class="cls-13" cx="870.07" cy="442.59" r="1.67"/><circle class="cls-13" cx="884.44" cy="431.94" r="1.67"/><circle class="cls-13" cx="898.81" cy="410.17" r="1.67"/><circle class="cls-13" cx="855.69" cy="454.42" r="1.67"/><circle class="cls-13" cx="841.32" cy="463.12" r="1.67"/><rect class="cls-2" x="420.38" y="287.47" width="88.94" height="88.94" rx="11.51"/><path class="cls-7" d="M465.42,339.41c1.52-7.23,2.14-16-6.57-24.23-5.39-5.06-12.78-7-20.08-8.18a36.09,36.09,0,0,0,1.58,9.06,34.93,34.93,0,0,0,25.07,23.35Z"/><path class="cls-7" d="M471.46,338.19c4.4.22,10.64-2.54,13.13-6.18a21.84,21.84,0,0,0,3.87-12.36c-1.79.37-6,.91-9.64,3.64-5.8,4.35-6.72,7.64-7.36,14.9Z"/><path class="cls-14" d="M455.6,328.12a47,47,0,0,1,10,12.39,30.49,30.49,0,0,1,3.19,17c0,.53.77.53.82,0a31.25,31.25,0,0,0-3.13-17,47,47,0,0,0-10.28-12.9c-.38-.36-1,.22-.58.58Z"/><path class="cls-14" d="M468.85,346.13c1.77-6.87,5.11-13.37,11.33-17.15.45-.28,0-1-.41-.71-6.41,3.89-9.89,10.56-11.71,17.65a.41.41,0,0,0,.79.21Z"/><path class="cls-7" d="M466.94,358.1c0-4.26,4.05-7.71,9.05-7.71s9.06,3.45,9.06,7.71"/><path class="cls-7" d="M457.59,358.1a6,6,0,0,1,12,0"/><rect class="cls-2" x="811.32" y="287.47" width="88.94" height="88.94" rx="11.51"/><path class="cls-5" d="M839.83,330.88a16,16,0,1,1,28.86,9.4h0c-2.28,3.43-8.2,7.31-8.2,9.63v2.65a1,1,0,0,1-1,1h-7.48a1,1,0,0,1-1-1v-2.65c0-2.32-5.92-6.2-8.2-9.63h0A15.91,15.91,0,0,1,839.83,330.88Z"/><path class="cls-7" d="M857.6,353.25a104.78,104.78,0,0,1,.21-12.41,18.6,18.6,0,0,1-4,0,104.78,104.78,0,0,1,.21,12.41h-.28a107.28,107.28,0,0,0-.23-12.44c-4.73-.66-6.85-3.34-7.23-5.87a3.54,3.54,0,0,1,1.2-3.5,2.41,2.41,0,0,1,1.95-.2,5,5,0,0,1,2.86,2.6,20.71,20.71,0,0,1,1.49,6.72,17.57,17.57,0,0,0,4.1,0,20.45,20.45,0,0,1,1.49-6.72,5,5,0,0,1,2.86-2.6,2.41,2.41,0,0,1,1.95.2,3.54,3.54,0,0,1,1.2,3.5c-.38,2.53-2.5,5.21-7.23,5.87a107.28,107.28,0,0,0-.23,12.44ZM863,331.4a2.53,2.53,0,0,0-.71.1,4.7,4.7,0,0,0-2.69,2.46,20.32,20.32,0,0,0-1.45,6.55c4.54-.65,6.57-3.21,6.93-5.62a3.31,3.31,0,0,0-1.07-3.22A1.93,1.93,0,0,0,863,331.4Zm-14.38,0a1.93,1.93,0,0,0-1,.27,3.31,3.31,0,0,0-1.07,3.22c.36,2.41,2.39,5,6.92,5.62A20.09,20.09,0,0,0,852,334a4.73,4.73,0,0,0-2.69-2.46A2.53,2.53,0,0,0,848.6,331.4Z"/><path class="cls-6" d="M856.9,354l0-.74a109.16,109.16,0,0,1,.14-11.64,19.54,19.54,0,0,1-2.42,0,109.16,109.16,0,0,1,.14,11.64l0,.74-1.76-.08,0-.74a108.16,108.16,0,0,0-.18-11.77c-6-1.08-7.08-5.15-7.27-6.4a4.24,4.24,0,0,1,1.55-4.25,3.15,3.15,0,0,1,2.53-.27,5.75,5.75,0,0,1,3.32,3,19.79,19.79,0,0,1,1.51,6.38,15.67,15.67,0,0,0,2.74,0,19.53,19.53,0,0,1,1.51-6.38,5.72,5.72,0,0,1,3.32-3,3.15,3.15,0,0,1,2.53.27,4.24,4.24,0,0,1,1.55,4.25c-.19,1.25-1.27,5.32-7.28,6.4a109.77,109.77,0,0,0-.17,11.77l0,.73ZM863,332.14a1.59,1.59,0,0,0-.51.08,4,4,0,0,0-2.24,2.08,17.15,17.15,0,0,0-1.26,5.3c3-.69,5-2.45,5.36-4.82a2.62,2.62,0,0,0-.72-2.47A1.13,1.13,0,0,0,863,332.14Zm-14.38,0a1.18,1.18,0,0,0-.63.16,2.65,2.65,0,0,0-.72,2.48c.36,2.37,2.33,4.13,5.35,4.82a16.87,16.87,0,0,0-1.26-5.3,3.92,3.92,0,0,0-2.23-2.08A1.59,1.59,0,0,0,848.6,332.14Z"/><path class="cls-8" d="M862,352.9H849.57v5.93a5.11,5.11,0,0,0,.79,2.74h0a5.37,5.37,0,0,0,4.52,2.48h1.82a5.37,5.37,0,0,0,4.52-2.48h0a5.11,5.11,0,0,0,.79-2.74Z"/><path class="cls-5" d="M849.57,356.9h.1l12.45-1.29a.75.75,0,0,0,.66-.86.82.82,0,0,0-.88-.69l-12.44,1.29a.75.75,0,0,0-.66.85A.8.8,0,0,0,849.57,356.9Z"/><path class="cls-5" d="M849.57,359.62h.1l12.45-1.29a.74.74,0,0,0,.66-.85.8.8,0,0,0-.88-.69l-12.44,1.29a.74.74,0,0,0-.66.85A.81.81,0,0,0,849.57,359.62Z"/><path class="cls-5" d="M850.06,362.3h.11l11.8-1.22a.75.75,0,0,0,.66-.86.82.82,0,0,0-.88-.69L850,360.75a.75.75,0,0,0-.66.86A.79.79,0,0,0,850.06,362.3Z"/><path class="cls-5" d="M855.79,308.2a1.11,1.11,0,0,1-1.11-1.11v-6.15a1.11,1.11,0,0,1,2.22,0v6.15A1.11,1.11,0,0,1,855.79,308.2Z"/><line class="cls-15" x1="868.35" y1="304.87" x2="865.87" y2="310.49"/><path class="cls-5" d="M865.87,311.6a1.17,1.17,0,0,1-.45-.09,1.11,1.11,0,0,1-.57-1.47l2.48-5.62a1.11,1.11,0,0,1,1.47-.56,1.1,1.1,0,0,1,.56,1.46l-2.48,5.62A1.1,1.1,0,0,1,865.87,311.6Z"/><line class="cls-15" x1="843.23" y1="304.87" x2="845.71" y2="310.49"/><path class="cls-5" d="M845.71,311.6a1.1,1.1,0,0,1-1-.66l-2.49-5.62a1.11,1.11,0,0,1,2-.9l2.48,5.62a1.12,1.12,0,0,1-.57,1.47A1.2,1.2,0,0,1,845.71,311.6Z"/><ellipse class="cls-16" cx="1166.95" cy="660.75" rx="37.56" ry="6.73"/><path d="M1182.88,607.21l8.13,7.42a14.87,14.87,0,0,1-1.13,22.91c-7.12,5.32-14.55,11.54-16.65,15.74-2.78,5.57-16.25,6.24-25.59,6a4.69,4.69,0,0,1-3.65-7.48c4.23-5.72,9.15-13.67,8.13-18.53"/><ellipse class="cls-16" cx="1001.56" cy="666.64" rx="48.73" ry="7.32"/><path class="cls-7" d="M1078.54,437.86l34.74,87.86a8.79,8.79,0,0,0,2.9,4.37l72.17,58.79a8.82,8.82,0,0,1,.13,13.58L1143,641a8.84,8.84,0,0,1-12.54-1.15l-70.49-86a8.8,8.8,0,0,1-1.94-4.56l-12.47-41.63A2.38,2.38,0,0,0,1041,507l-20.15,66a8.83,8.83,0,0,0,.14,7.12l25.16,54.09a8.83,8.83,0,0,1-8,12.56H980.88a8.83,8.83,0,0,1-8.78-7.92l-6.57-63.41a8.71,8.71,0,0,1,.55-4.1l32.71-111Z"/><path class="cls-7" d="M1078.54,437.86l34.74,87.86a8.79,8.79,0,0,0,2.9,4.37l72.17,58.79a8.82,8.82,0,0,1,.13,13.58L1143,641a8.84,8.84,0,0,1-12.54-1.15l-70.49-86a8.8,8.8,0,0,1-1.94-4.56l-12.47-41.63A2.38,2.38,0,0,0,1041,507l-20.15,66a8.83,8.83,0,0,0,.14,7.12l25.16,54.09a8.83,8.83,0,0,1-8,12.56H980.88a8.83,8.83,0,0,1-8.78-7.92l-6.57-63.41a8.71,8.71,0,0,1,.55-4.1l32.71-111Z"/><path d="M1033.42,646.76l3.4,11.56a5.4,5.4,0,0,1-5.19,6.93H971a2.83,2.83,0,0,1-2.19-4.64c4.11-5,11.85-12.44,22.36-13.85"/><path class="cls-17" d="M1063.77,442l26.45,91.9a18.17,18.17,0,0,0,6.21,9.24L1180,609.68"/><path class="cls-18" d="M942.34,366.18,924,377.08,875,369.5s-9.55-4.07-13.47.05-24.56,1.36-20.15,4.68,18-.18,14.23,4.4-20.73,2.34-22.43,6,13.23,5.15,20.44,7.16,12.74-8,17.7-8.34,46.93,24.75,57.94,22.75,29.36-16.49,29.36-16.49"/><path class="cls-6" d="M942.81,358.12s-3.46,8.19-10.85,10.67S944,396.4,943.3,400.19s7.52.62,7.52.62L961.35,387Z"/><path class="cls-5" d="M942.81,358.12s-3.46,8.19-10.85,10.67S944,396.4,943.3,400.19s7.52.62,7.52.62L961.35,387Z"/><path class="cls-19" d="M942.81,358.12s-3.46,8.19-10.85,10.67S944,396.4,943.3,400.19s7.52.62,7.52.62L961.35,387Z"/><path class="cls-5" d="M998.79,460.32C995,438.59,970,411.21,949.27,384.65S959,332.19,959,332.19s9.13,13.63,12.85-2.19,22.44-17.84,22.44-17.84c61.81-14,84.21,125.7,84.21,125.7S1002.05,479.15,998.79,460.32Z"/><path class="cls-18" d="M963.22,375l-4.79,28.56-63.25,26.21s-17.45-14.55-19.26-12.72S884,427.76,884,427.76s-14.42,4.9-15.94,9.49-2.68,10.47,3.44,12.49,26.3-2.14,26.3-2.14l75.84-20.87s12.5-3.44,13.72-15.83,6.08-32.73,6.08-32.73"/><path class="cls-6" d="M978.71,330.53c-7.47,7.65-14.77,22.6-18.55,51.12L990.56,409l19.93-54.66s3.59-6.33.3-16.09C1006.21,324.64,988.75,320.25,978.71,330.53Z"/><path class="cls-5" d="M978.71,330.53c-7.47,7.65-14.77,22.6-18.55,51.12L990.56,409l19.93-54.66s3.59-6.33.3-16.09C1006.21,324.64,988.75,320.25,978.71,330.53Z"/><path class="cls-19" d="M978.71,330.53c-7.47,7.65-14.77,22.6-18.55,51.12L990.56,409l19.93-54.66s3.59-6.33.3-16.09C1006.21,324.64,988.75,320.25,978.71,330.53Z"/><path d="M922.16,274.7s-17.8-8-10.82-15.84,22.88-15.79,37.48-6.64a20.58,20.58,0,0,1,21.39-.33c12.27,7.18,13.32,23.13,8.9,24.53,0,0,11.37,19.82,1.21,31.76s-25.67-7.32-30.9-8.71C942.45,297.63,922.16,274.7,922.16,274.7Z"/><path class="cls-18" d="M922.16,274.7c.14,2.12,1.55,17.49,3.64,24.74.33,1.13,3.29,1.33,3.56,2.2l1.88,6.06S936.78,323.93,954,316L959,332.19l5.39,12.42,22.37-30.69-6.48-5.74c-8.05,5.71-28.84-9.27-28.84-9.27s4.5-12.71-2.12-14.3-6.7,6-6.7,6S921.86,270,922.16,274.7Z"/><ellipse cx="930.37" cy="290.36" rx="1.66" ry="2.07" transform="translate(-43.91 316.2) rotate(-18.85)"/><path d="M925.9,282.3s-.92,3.76,1.1,4,5.82.35,6.77,1S930.69,281.76,925.9,282.3Z"/><path class="cls-20" d="M951.3,290.07a3.94,3.94,0,0,0-4.61-3.09"/><path class="cls-6" d="M932.36,304.51s5.27.57,6.94-3.3,2.49,10.43-4,9.73C935.3,310.94,933.36,309.79,932.36,304.51Z"/><path class="cls-20" d="M954,316s6.29-5.4,8-7.78c4.36-5.9-6.26,14.28-6.26,14.28Z"/><path class="cls-7" d="M343.81,335.87l-12.26-2.15a63.45,63.45,0,0,0-6.32-15.26l7.14-10.19a9.41,9.41,0,0,0-1.05-12.07L324,288.87a9.4,9.4,0,0,0-12.06-.86l-10.19,7.14a63.45,63.45,0,0,0-15.26-6.32l-2.11-12.53a9.4,9.4,0,0,0-9.1-7.81H264.68a9.41,9.41,0,0,0-9.29,7.81l-2.14,12.21A63.39,63.39,0,0,0,238,294.84L227.83,288a9.4,9.4,0,0,0-12.06,1.05l-7.34,7.34a9.41,9.41,0,0,0-1.05,12.06l7.14,10.19a63.45,63.45,0,0,0-6.32,15.26L196,336.06a9.41,9.41,0,0,0-7.81,9.29v10.39A9.41,9.41,0,0,0,196,365l12.22,2.14a63.36,63.36,0,0,0,6.32,15.27l-7.14,10.19a9.41,9.41,0,0,0,1.05,12.06l7.34,7.34a9.41,9.41,0,0,0,12.06,1.05L238,405.94a63.36,63.36,0,0,0,15.27,6.32l2.14,12.22a9.41,9.41,0,0,0,9.29,7.81h10.54a9.4,9.4,0,0,0,9.29-7.81l2.15-12.22A63.45,63.45,0,0,0,302,405.94l10,7A9.41,9.41,0,0,0,324,411.87l7.34-7.34a9.4,9.4,0,0,0,1.05-12.06l-7.14-10.27a63.45,63.45,0,0,0,6.32-15.26l12.26-2.15a9.4,9.4,0,0,0,7.81-9.29V345.12A9.4,9.4,0,0,0,343.81,335.87Zm-73.93,47a32.56,32.56,0,1,1,32.55-32.56v.18A32.56,32.56,0,0,1,269.88,382.87Z"/><path class="cls-8" d="M270.35,235.53l-7.07-5a44.09,44.09,0,0,0,.56-11.47l7.51-4.28a6.53,6.53,0,0,0,2.91-7.89l-2.43-6.79A6.54,6.54,0,0,0,264.5,196L256,197.47a44.16,44.16,0,0,0-7.71-8.5l2.39-8.5a6.53,6.53,0,0,0-3.4-7.6l-6.64-3.14a6.55,6.55,0,0,0-8.16,2.15l-5,7a44,44,0,0,0-11.46-.55l-4.36-7.3a6.54,6.54,0,0,0-7.89-2.92L197,170.58a6.53,6.53,0,0,0-4.24,7.27l1.46,8.52a44.16,44.16,0,0,0-8.5,7.71l-8.31-2.27a6.54,6.54,0,0,0-7.66,3.52l-3.08,6.53a6.53,6.53,0,0,0,2.15,8.15l7,5a44.09,44.09,0,0,0-.56,11.47l-7.51,4.28a6.53,6.53,0,0,0-2.91,7.89l2.43,6.79a6.54,6.54,0,0,0,7.27,4.24l8.52-1.47a43.87,43.87,0,0,0,7.71,8.5L188.54,265a6.53,6.53,0,0,0,3.52,7.66l6.62,3.12a6.53,6.53,0,0,0,8.15-2.15l5-7a44,44,0,0,0,11.46.56l4.18,7.34a6.55,6.55,0,0,0,7.89,2.92l6.79-2.44a6.53,6.53,0,0,0,4.24-7.26l-1.44-8.57a44.21,44.21,0,0,0,8.5-7.72l8.34,2.29a6.54,6.54,0,0,0,7.66-3.52l3.08-6.53A6.54,6.54,0,0,0,270.35,235.53Zm-60.4,7.6a22.62,22.62,0,1,1,30.12-10.79l-.06.11A22.61,22.61,0,0,1,210,243.13Z"/></g></g></svg>